<?xml version="1.0" encoding="utf-8"?>
<svg viewBox="0 0 512 512" xmlns="http://www.w3.org/2000/svg">
  <g id="g3310" transform="matrix(0.608614, 0, 0, 0.608614, 30.012096, 4.858907)" style="">
    <path id="rect2427" style="stroke:#451a03;stroke-width:10;fill:none" d="m69.14 110.14h605.91v605.91h-605.91z"/>
    <path id="rect3199" style="stroke:#451a03;stroke-width:10;fill:none" d="m163.69 204.69h416.81v416.81h-416.81z"/>
    <path id="rect3201" style="stroke:#451a03;stroke-width:10;fill:none" d="m254.15 295.15h235.88v235.88h-235.88z"/>
    <path id="path3225" style="fill-opacity:.98039;stroke:#451a03;stroke-width:10;fill:#451a03" transform="matrix(.43252 0 0 .43252 337.28 .28599)" d="m-562.63 252.84c0 32.692-26.532 59.224-59.224 59.224s-59.224-26.532-59.224-59.224 26.532-59.224 59.224-59.224 59.224 26.532 59.224 59.224z"/>
    <path id="path3227" style="fill-opacity:.98039;stroke:#451a03;stroke-width:10;fill:#451a03" transform="matrix(.43252 0 0 .43252 337.28 604.29)" d="m-562.63 252.84c0 32.692-26.532 59.224-59.224 59.224s-59.224-26.532-59.224-59.224 26.532-59.224 59.224-59.224 59.224 26.532 59.224 59.224z"/>
    <path id="path3229" style="fill-opacity:.98039;stroke:#451a03;stroke-width:10;fill:#451a03" transform="matrix(.43252 0 0 .43252 337.28 302.29)" d="m-562.63 252.84c0 32.692-26.532 59.224-59.224 59.224s-59.224-26.532-59.224-59.224 26.532-59.224 59.224-59.224 59.224 26.532 59.224 59.224z"/>
    <path id="path3231" style="fill-opacity:.98039;stroke:#451a03;stroke-width:10;fill:#451a03" transform="matrix(.43252 0 0 .43252 431.28 302.29)" d="m-562.63 252.84c0 32.692-26.532 59.224-59.224 59.224s-59.224-26.532-59.224-59.224 26.532-59.224 59.224-59.224 59.224 26.532 59.224 59.224z"/>
    <path id="path3233" style="fill-opacity:.98039;stroke:#451a03;stroke-width:4.3252;fill:#451a03" d="m277.93 411.65c0 14.14-11.476 25.616-25.616 25.616s-25.616-11.476-25.616-25.616 11.476-25.616 25.616-25.616 25.616 11.476 25.616 25.616z"/>
    <path id="path3235" style="fill-opacity:.98039;stroke:#451a03;stroke-width:4.3252;fill:#451a03" d="m513.93 411.65c0 14.14-11.476 25.616-25.616 25.616s-25.616-11.476-25.616-25.616 11.476-25.616 25.616-25.616 25.616 11.476 25.616 25.616z"/>
    <path id="path3237" style="fill-opacity:.98039;stroke:#451a03;stroke-width:10;fill:#451a03" transform="matrix(.43252 0 0 .43252 849.28 302.29)" d="m-562.63 252.84c0 32.692-26.532 59.224-59.224 59.224s-59.224-26.532-59.224-59.224 26.532-59.224 59.224-59.224 59.224 26.532 59.224 59.224z"/>
    <path id="path3239" style="fill-opacity:.98039;stroke:#451a03;stroke-width:10;fill:#451a03" transform="matrix(.43252 0 0 .43252 943.28 302.29)" d="m-562.63 252.84c0 32.692-26.532 59.224-59.224 59.224s-59.224-26.532-59.224-59.224 26.532-59.224 59.224-59.224 59.224 26.532 59.224 59.224z"/>
    <path id="path3241" style="fill-opacity:.98039;stroke:#451a03;stroke-width:10;fill:#451a03" transform="matrix(.43252 0 0 .43252 943.28 .28599)" d="m-562.63 252.84c0 32.692-26.532 59.224-59.224 59.224s-59.224-26.532-59.224-59.224 26.532-59.224 59.224-59.224 59.224 26.532 59.224 59.224z"/>
    <path id="path3243" style="fill-opacity:.98039;stroke:#451a03;stroke-width:10;fill:#451a03" transform="matrix(.43252 0 0 .43252 943.28 606.29)" d="m-562.63 252.84c0 32.692-26.532 59.224-59.224 59.224s-59.224-26.532-59.224-59.224 26.532-59.224 59.224-59.224 59.224 26.532 59.224 59.224z"/>
    <path id="path3245" style="fill-opacity:.98039;stroke:#451a03;stroke-width:10;fill:#451a03" transform="matrix(.43252 0 0 .43252 849.28 510.29)" d="m-562.63 252.84c0 32.692-26.532 59.224-59.224 59.224s-59.224-26.532-59.224-59.224 26.532-59.224 59.224-59.224 59.224 26.532 59.224 59.224z"/>
    <path id="path3247" style="fill-opacity:.98039;stroke:#451a03;stroke-width:10;fill:#451a03" transform="matrix(.43252 0 0 .43252 431.28 510.29)" d="m-562.63 252.84c0 32.692-26.532 59.224-59.224 59.224s-59.224-26.532-59.224-59.224 26.532-59.224 59.224-59.224 59.224 26.532 59.224 59.224z"/>
    <path id="path3249" style="fill-opacity:.98039;stroke:#451a03;stroke-width:10;fill:#451a03" transform="matrix(.43252 0 0 .43252 431.28 94.286)" d="m-562.63 252.84c0 32.692-26.532 59.224-59.224 59.224s-59.224-26.532-59.224-59.224 26.532-59.224 59.224-59.224 59.224 26.532 59.224 59.224z"/>
    <path id="path3251" style="fill-opacity:.98039;stroke:#451a03;stroke-width:10;fill:#451a03" transform="matrix(.43252 0 0 .43252 847.28 94.286)" d="m-562.63 252.84c0 32.692-26.532 59.224-59.224 59.224s-59.224-26.532-59.224-59.224 26.532-59.224 59.224-59.224 59.224 26.532 59.224 59.224z"/>
    <path id="path3253" style="fill-opacity:.98039;stroke:#451a03;stroke-width:4.3252;fill:#451a03" d="m513.93 293.65c0 14.14-11.476 25.616-25.616 25.616s-25.616-11.476-25.616-25.616 11.476-25.616 25.616-25.616 25.616 11.476 25.616 25.616z"/>
    <path id="path3255" style="fill-opacity:.98039;stroke:#451a03;stroke-width:4.3252;fill:#451a03" d="m279.93 293.65c0 14.14-11.476 25.616-25.616 25.616s-25.616-11.476-25.616-25.616 11.476-25.616 25.616-25.616 25.616 11.476 25.616 25.616z"/>
    <path id="path3257" style="fill-opacity:.98039;stroke:#451a03;stroke-width:4.3252;fill:#451a03" d="m279.93 529.65c0 14.14-11.476 25.616-25.616 25.616s-25.616-11.476-25.616-25.616 11.476-25.616 25.616-25.616 25.616 11.476 25.616 25.616z"/>
    <path id="path3259" style="fill-opacity:.98039;stroke:#451a03;stroke-width:4.3252;fill:#451a03" d="m513.93 529.65c0 14.14-11.476 25.616-25.616 25.616s-25.616-11.476-25.616-25.616 11.476-25.616 25.616-25.616 25.616 11.476 25.616 25.616z"/>
    <path id="path3261" style="fill-opacity:.98039;stroke:#451a03;stroke-width:4.3252;fill:#451a03" d="m397.71 293.65c0 14.14-11.476 25.616-25.616 25.616s-25.616-11.476-25.616-25.616 11.476-25.616 25.616-25.616 25.616 11.476 25.616 25.616z"/>
    <path id="path3263" style="fill-opacity:.98039;stroke:#451a03;stroke-width:4.3252;fill:#451a03" d="m397.71 529.65c0 14.14-11.476 25.616-25.616 25.616s-25.616-11.476-25.616-25.616 11.476-25.616 25.616-25.616 25.616 11.476 25.616 25.616z"/>
    <path id="path3265" style="fill-opacity:.98039;stroke:#451a03;stroke-width:10;fill:#451a03" transform="matrix(.43252 0 0 .43252 641.06 512.29)" d="m-562.63 252.84c0 32.692-26.532 59.224-59.224 59.224s-59.224-26.532-59.224-59.224 26.532-59.224 59.224-59.224 59.224 26.532 59.224 59.224z"/>
    <path id="path3267" style="fill-opacity:.98039;stroke:#451a03;stroke-width:10;fill:#451a03" transform="matrix(.43252 0 0 .43252 641.06 604.29)" d="m-562.63 252.84c0 32.692-26.532 59.224-59.224 59.224s-59.224-26.532-59.224-59.224 26.532-59.224 59.224-59.224 59.224 26.532 59.224 59.224z"/>
    <path id="path3269" style="fill-opacity:.98039;stroke:#451a03;stroke-width:10;fill:#451a03" transform="matrix(.43252 0 0 .43252 641.06 94.286)" d="m-562.63 252.84c0 32.692-26.532 59.224-59.224 59.224s-59.224-26.532-59.224-59.224 26.532-59.224 59.224-59.224 59.224 26.532 59.224 59.224z"/>
    <path id="path3271" style="fill-opacity:.98039;stroke:#451a03;stroke-width:10;fill:#451a03" transform="matrix(.43252 0 0 .43252 641.06 .28599)" d="m-562.63 252.84c0 32.692-26.532 59.224-59.224 59.224s-59.224-26.532-59.224-59.224 26.532-59.224 59.224-59.224 59.224 26.532 59.224 59.224z"/>
    <path id="path3273" style="stroke:#451a03;stroke-width:10;fill:none" d="m372.25 107.59-0.31 176.51"/>
    <path id="path3275" style="stroke:#451a03;stroke-width:10;fill:none" d="m372.25 539.59-0.31 176.51"/>
    <path id="path3279" style="stroke:#451a03;stroke-width:10;fill:none" d="m70.829 412.94 176.51 0.30614"/>
    <path id="path3281" style="stroke:#451a03;stroke-width:10;fill:none" d="m500.83 412.94 176.51 0.30614"/>
  </g>
</svg>